<svg fill="none" height="32" viewBox="0 0 32 32" width="32" xmlns="http://www.w3.org/2000/svg"><rect fill="#fff" fill-opacity=".5" height="32" rx="16" width="32"/><g fill="#000"><path d="m9 11c.56 0 1-.44 1-1s-.44-1-1-1-1 .44-1 1 .44 1 1 1zm-2 3c.56 0 1-.44 1-1s-.44-1-1-1-1 .44-1 1 .44 1 1 1zm-2 3c.56 0 1-.44 1-1s-.44-1-1-1-1 .44-1 1 .44 1 1 1zm2 3c.56 0 1-.44 1-1s-.44-1-1-1-1 .44-1 1 .44 1 1 1zm2 3c.56 0 1-.44 1-1s-.44-1-1-1-1 .44-1 1 .44 1 1 1z"/><path d="m23 11c-.56 0-1-.44-1-1s.44-1 1-1 1 .44 1 1-.44 1-1 1zm2 3c-.56 0-1-.44-1-1s.44-1 1-1 1 .44 1 1-.44 1-1 1zm2 3c-.56 0-1-.44-1-1s.44-1 1-1 1 .44 1 1-.44 1-1 1zm-2 3c-.56 0-1-.44-1-1s.44-1 1-1 1 .44 1 1-.44 1-1 1zm-2 3c-.56 0-1-.44-1-1s.44-1 1-1 1 .44 1 1-.44 1-1 1z"/></g></svg>