<svg fill="none" height="25" viewBox="0 0 25 25" width="25" xmlns="http://www.w3.org/2000/svg"><g fill="#f5f5f5"><path d="m14.9187 12.3301-3.7219-2.0243c-.1528-.0852-.6748.0249-.6748.1989v3.9492c0 .174.5185.2841.6712.2024l3.8889-1.9248c.1562-.0853-.0072-.3126-.1634-.4014z"></path><path d="m12.2339.610352c-6.52401 0-11.815687 5.291678-11.815687 11.815748 0 6.524 5.291677 11.8157 11.815687 11.8157 6.5241 0 11.8158-5.2917 11.8158-11.8157 0-6.52407-5.2882-11.815748-11.8158-11.815748zm7.9447 13.832948c0 1.8716-1.5165 3.3917-3.3917 3.3917h-8.66911c-1.87162 0-3.39165-1.5165-3.39165-3.3917v-4.0345c0-1.87158 1.51647-3.39161 3.39165-3.39161h8.66911c1.8716 0 3.3917 1.51648 3.3917 3.39161z"></path></g></svg>