<svg fill="none" height="25" viewBox="0 0 24 25" width="24" xmlns="http://www.w3.org/2000/svg"><g fill="#f5f5f5" stroke="#f5f5f5"><path d="m10.1438 12.4257c0-.9704.7883-1.7587 1.7587-1.7587.9705 0 1.7588.7883 1.7588 1.7587s-.7883 1.7588-1.7588 1.7588c-.9704 0-1.7587-.7884-1.7587-1.7588z"></path><path d="m8.98265 7.1123h5.71785c.3594 0 .701.07758 1.0089.21688-.0259-.00151-.0521-.00227-.0784-.00227-.7378 0-1.3382.60031-1.3382 1.33814 0 .24471.0658.47453.1808.67235-.6987-.58304-1.597-.9344-2.5752-.9344-2.21879 0-4.0266 1.8078-4.0266 4.0266 0 2.2185 1.80393 4.0266 4.0266 4.0266 2.2188 0 4.0266-1.8078 4.0266-4.0266 0-.9903-.3601-1.8987-.9561-2.60105.1949.11109.4207.17465.6621.17465.7378 0 1.3381-.60032 1.3381-1.33815 0-.01247-.0001-.02491-.0005-.03731.1203.28948.1867.60679.1867.93938v5.71788c0 1.354-1.1008 2.4548-2.4548 2.4548h-5.71785c-1.35398 0-2.45482-1.1008-2.45482-2.4548v-5.71788c0-1.35398 1.10084-2.45482 2.45482-2.45482z"></path><path d="m.526123 12.4261c0-6.24792 5.067827-11.31575 11.315677-11.31575 6.2514 0 11.3158 5.06773 11.3158 11.31575 0 6.2479-5.0679 11.3157-11.3158 11.3157-6.24785 0-11.315677-5.0678-11.315677-11.3157zm14.174677 7.6597c2.648 0 4.8043-2.1517 4.8043-4.8008v-5.71786c0-2.65234-2.1561-4.80437-4.8043-4.80437h-5.71789c-2.64852 0-4.80437 2.15585-4.80437 4.80437v5.71786c0 2.6491 2.15639 4.8008 4.80437 4.8008z"></path></g></svg>