<svg width="6" height="14" viewBox="0 0 6 14" fill="none" xmlns="http://www.w3.org/2000/svg">
        <path d="M5 2C5.56 2 6 1.56 6 0.999999C6 0.439999 5.56 -9.53674e-07 5 -9.53674e-07C4.44 -9.53674e-07 4 0.439999 4 0.999999C4 1.56 4.44 2 5 2ZM3 5C3.56 5 4 4.56 4 4C4 3.44 3.56 3 3 3C2.44 3 2 3.44 2 4C2 4.56 2.44 5 3 5ZM1 8C1.56 8 2 7.56 2 7C2 6.44 1.56 6 1 6C0.44 6 1.49012e-08 6.44 1.49012e-08 7C1.49012e-08 7.56 0.44 8 1 8ZM3 11C3.56 11 4 10.56 4 10C4 9.44 3.56 9 3 9C2.44 9 2 9.44 2 10C2 10.56 2.44 11 3 11ZM5 14C5.56 14 6 13.56 6 13C6 12.44 5.56 12 5 12C4.44 12 4 12.44 4 13C4 13.56 4.44 14 5 14Z" fill="#002F6C"></path>
      </svg>