<svg height="30" viewBox="0 0 30 30" fill="currentColor" width="30" xmlns="http://www.w3.org/2000/svg"><path d="m28.75 15c0-3.796-1.54-7.236-4.027-9.722s-5.926-4.027-9.722-4.027-7.236 1.54-9.722 4.027-4.027 5.926-4.027 9.722 1.54 7.236 4.027 9.722 5.926 4.027 9.722 4.027 7.236-1.54 9.722-4.027 4.027-5.926 4.027-9.722zm-2.5 0c0 3.107-1.258 5.918-3.295 7.955s-4.847 3.295-7.955 3.295-5.917-1.258-7.955-3.295-3.295-4.847-3.295-7.955 1.258-5.917 3.295-7.955 4.847-3.295 7.955-3.295 5.917 1.258 7.955 3.295 3.295 4.847 3.295 7.955zm-12.5-5v5c0 .69.56 1.25 1.25 1.25s1.25-.56 1.25-1.25v-5c0-.69-.56-1.25-1.25-1.25s-1.25.56-1.25 1.25zm2.5 10c0-.69-.56-1.25-1.25-1.25s-1.25.56-1.25 1.25.56 1.25 1.25 1.25 1.25-.56 1.25-1.25z"></path></svg>