<svg fill="none" height="25" viewBox="0 0 24 25" width="24" xmlns="http://www.w3.org/2000/svg"><path d="m12.0715.610352c-6.55393 0-11.86984 5.315918-11.86984 11.869848 0 6.5539 5.31591 11.8698 11.86984 11.8698 6.5539 0 11.8698-5.3159 11.8698-11.8698 0-6.55393-5.3123-11.869848-11.8698-11.869848zm6.8322 10.385648c-.1284.0107-.2533.0178-.3818.0178-1.4021 0-2.7079-.7064-3.4749-1.87658v6.39338c0 2.6116-2.1157 4.7272-4.7273 4.7272-2.61154 0-4.7272-2.1156-4.7272-4.7272s2.11566-4.7272 4.7272-4.7272c.0999 0 .1963.0071.2926.0142v2.3297c-.0963-.0107-.1927-.0285-.2926-.0285-1.33073 0-2.41175 1.081-2.41175 2.4118s1.08102 2.4118 2.41175 2.4118c1.3308 0 2.5081-1.0489 2.5081-2.3833l.025-10.86013h2.2263c.2105 1.99793 1.8195 3.55702 3.8246 3.7033v2.58663z" fill="#f5f5f5"></path></svg>