<svg width="24" height="25" viewBox="0 0 24 25" fill="none" xmlns="http://www.w3.org/2000/svg">
    <g clip-path="url(#clip0_520_5)"><path d="M12 25C18.6274 25 24 19.4036 24 12.5C24 5.59644 18.6274 0 12 0C5.37258 0 0 5.59644 0 12.5C0 19.4036 5.37258 25 12 25Z" fill="white"></path><path d="M16.4023 6.40625H18.4707L13.9531 11.5684L19.2676 18.5938H15.1074L11.8467 14.334L8.12012 18.5938H6.04883L10.8799 13.0713L5.78516 6.40625H10.0508L12.9951 10.2998L16.4023 6.40625ZM15.6758 17.3574H16.8213L9.42676 7.57812H8.19629L15.6758 17.3574Z" fill="black"></path></g><defs><clipPath id="clip0_520_5"><rect width="24" height="25" fill="white"></rect></clipPath></defs></svg>