<svg fill="none" height="25" viewBox="0 0 24 25" width="24" xmlns="http://www.w3.org/2000/svg"><ellipse cx="12" cy="12.5" fill="#fff" rx="12" ry="12.5"></ellipse><path d="m17.5781 7.66406c1.8047 2.67974 2.7071 5.68754 2.3789 9.16014 0 0 0 .0274-.0273.0274-1.2031.9023-2.5703 1.5859-4.0195 2.0234-.0274.0273-.0274 0-.0547 0-.3008-.4375-.5743-.875-.8203-1.3398 0-.0274 0-.0547.0273-.0821.4375-.164.8477-.3554 1.2578-.6015.0274 0 .0274-.0547 0-.0821-.082-.0547-.1641-.1093-.2461-.1914-.0273 0-.0273 0-.0547 0-2.5976 1.2031-5.4414 1.2031-8.06638 0-.02734 0-.05468 0-.05468 0-.08203.0821-.16406.1367-.2461.1914-.05468.0274-.02734.0821 0 .0821.38282.2461.82032.4375 1.25782.6015.02734.0274.02734.0547.02734.0821-.24609.4648-.51953.9023-.82031 1.3398-.02735 0-.05469.0273-.05469 0-1.44922-.4375-2.81641-1.1211-4.01953-2.0234-.02735 0-.02735-.0274-.02735-.0274-.27343-3.0078.30079-6.043 2.37891-9.16014h.02735c1.03906-.49218 2.13281-.82031 3.2539-1.01172.02734-.02734.05469 0 .05469 0 .16406.27344.30073.57422.41013.84766 1.2305-.19141 2.461-.19141 3.6914 0 .1094-.27344.2461-.57422.4102-.84766 0 0 .0273-.02734.0547 0 1.1211.19141 2.2148.51954 3.2539 1.01172zm-8.25779 7.32814c.79299 0 1.44919-.7383 1.44919-1.6133 0-.9023-.6289-1.6133-1.44919-1.6133-.79297 0-1.44922.711-1.44922 1.6133 0 .875.65625 1.6133 1.44922 1.6133zm5.33199 0c.8204 0 1.4493-.7383 1.4493-1.6133.0273-.9023-.6289-1.6133-1.4493-1.6133-.7929 0-1.4218.711-1.4218 1.6133 0 .875.6289 1.6133 1.4218 1.6133z" fill="#000"></path></svg>