<svg width="14" height="14" viewBox="0 0 14 14" fill="none" xmlns="http://www.w3.org/2000/svg">
  <path d="M11.5222 4.15113V12.6978H2.97561V4.15113H5.11223V5.21947C5.11223 5.41627 5.27163 5.57561 5.46833 5.57561C5.66515 5.57561 5.82453 5.41627 5.82453 5.21947V4.15113H8.67335V5.21947C8.67335 5.41627 8.83275 5.57561 9.02951 5.57561C9.22625 5.57561 9.38555 5.41627 9.38555 5.21947V4.15113H11.5222ZM5.82451 2.72669C5.82451 1.94127 6.46349 1.30231 7.24895 1.30231C8.03437 1.30231 8.67335 1.94129 8.67335 2.72669V3.43893H5.82451V2.72669ZM7.24895 0.590027C6.07077 0.590027 5.11223 1.54851 5.11223 2.72669V3.43893H2.61947C2.42271 3.43893 2.26331 3.59835 2.26331 3.79505V13.0539C2.26331 13.2505 2.42271 13.41 2.61947 13.41H11.8783C12.0751 13.41 12.2345 13.2505 12.2345 13.0539V3.79505C12.2345 3.59835 12.0751 3.43893 11.8783 3.43893H9.38553V2.72669C9.38553 1.54851 8.42699 0.590027 7.24895 0.590027Z" fill="#FCFCFC"></path>
  </svg>