<svg width="6" height="14" viewBox="0 0 6 14" fill="none" xmlns="http://www.w3.org/2000/svg">
        <path d="M1 2C0.44 2 -4.76837e-07 1.56 -4.76837e-07 0.999999C-4.76837e-07 0.439999 0.44 -9.53674e-07 1 -9.53674e-07C1.56 -9.53674e-07 2 0.439999 2 0.999999C2 1.56 1.56 2 1 2ZM3 5C2.44 5 2 4.56 2 4C2 3.44 2.44 3 3 3C3.56 3 4 3.44 4 4C4 4.56 3.56 5 3 5ZM5 8C4.44 8 4 7.56 4 7C4 6.44 4.44 6 5 6C5.56 6 6 6.44 6 7C6 7.56 5.56 8 5 8ZM3 11C2.44 11 2 10.56 2 10C2 9.44 2.44 9 3 9C3.56 9 4 9.44 4 10C4 10.56 3.56 11 3 11ZM1 14C0.44 14 -4.76837e-07 13.56 -4.76837e-07 13C-4.76837e-07 12.44 0.44 12 1 12C1.56 12 2 12.44 2 13C2 13.56 1.56 14 1 14Z" fill="#002F6C"></path>
        </svg>